<?xml version="1.0" encoding="UTF-8"?>
<svg width="24" height="24" viewBox="0 0 24 24" fill="none" xmlns="http://www.w3.org/2000/svg">
  <path fill="currentColor" d="M19.2 16.3l-3.2-.3c-.1 0-.2 0-.3.1l-2.1 3.3c-.3.5-.1 1.1.4 1.3.9.4 3.8 1.6 4.4 1.8.6.3 1.2 0 1.4-.6l.7-4c.1-.7-.6-1.4-1.3-1.6zm-4.9-2.9c.1.2.3.2.4.2l3.2-.7c.7-.1 1.1-.9.8-1.6l-1.6-3.8c-.2-.6-.9-.8-1.4-.5-1 .6-3.1 2-3.8 2.4-.4.3-.5.9-.2 1.3l2.6 2.7zm-2.1-4.8l.9-3.2c.2-.7-.3-1.3-1-1.4L8.3 3.5c-.6-.1-1.2.3-1.3.9-.2 1.1-.4 4.1-.5 4.9 0 .5.4 1 .9 1.1l3.2.3c.1 0 .2 0 .3-.1.5-.2 1.1-1 1.3-1.2v-.8zM7.6 12c0-.3-.2-.5-.4-.6L4 10.3c-.7-.2-1.4.3-1.4 1l.1 4.1c0 .6.5 1.1 1.1 1.1 1.1-.1 3.8-.4 4.7-.6.5-.1.8-.6.7-1.1l-1.6-2.8zm.7 4.3c-1.1.2-3.9.6-4.6.7-.6.1-1 .8-.7 1.4l1.9 3.6c.3.5 1 .7 1.5.3.9-.6 3-2.2 3.6-2.7.4-.3.4-.9.1-1.3l-1.8-2z"/>
</svg> 